<svg width="1265" height="1269" viewBox="0 0 1265 1269" fill="none" xmlns="http://www.w3.org/2000/svg">
<g opacity="0.33">
<path d="M1124.98 943.356C1057.27 1025.24 941.064 1037.34 865.424 970.386C853.196 959.562 842.788 947.325 834.197 934.083C823.249 917.776 811.025 902.963 797.749 889.664C771.354 872.626 736.458 871.297 706.593 889.209C659.774 918.374 599.773 915.937 557.648 878.648C551.864 873.53 546.657 867.96 542.028 862.034C522.687 837.935 492.588 828.568 464.131 834.861C446.137 843.384 428.596 853.8 411.749 866.124C314.045 940.186 179.907 940.545 87.776 858.992C-20.5506 763.1 -29.7604 590.306 67.2024 473.041C126.493 401.335 211.752 367.005 293.82 373.073C348.818 376.802 398.414 333.447 404.914 275.935C408.091 246.082 419.865 216.54 440.473 191.614C493.134 127.925 583.519 118.513 642.35 170.592C655.709 182.416 666.282 196.403 674.047 211.696C680.481 223.049 694.333 227.076 706.069 221.131C800.806 164.125 920.931 169.92 1005.58 244.853C1099.77 328.227 1119.01 469.738 1058.69 582.341C1046.16 607.489 1054.39 637.635 1077.4 650.75C1089.08 656.987 1100.23 664.678 1110.62 673.869C1186.25 740.813 1192.68 861.47 1124.98 943.356Z" fill="url(#paint0_linear)"/>
</g>
<defs>
<linearGradient id="paint0_linear" x1="1068" y1="953" x2="887.63" y2="172.424" gradientUnits="userSpaceOnUse">
<stop stop-color="#0072FF"/>
<stop offset="1" stop-color="#00FFF0"/>
</linearGradient>
</defs>
</svg>
